<?xml version="1.0" encoding="UTF-8" standalone="no"?>
<!DOCTYPE svg PUBLIC "-//W3C//DTD SVG 1.1//EN"
 "http://www.w3.org/Graphics/SVG/1.1/DTD/svg11.dtd">
<!-- Generated by graphviz version 2.43.0 (0)
 -->
<!-- Title: pastafarianism Pages: 1 -->
<svg width="967pt" height="511pt"
 viewBox="0.00 0.00 967.09 510.97" xmlns="http://www.w3.org/2000/svg" xmlns:xlink="http://www.w3.org/1999/xlink">
<g id="graph0" class="graph" transform="scale(1 1) rotate(0) translate(4 506.97)">
<title>pastafarianism</title>
<polygon fill="white" stroke="transparent" points="-4,4 -4,-506.97 963.09,-506.97 963.09,4 -4,4"/>
<!-- selector:
 insert(left_hand, clampgripper, gear3, shaft3) -->
<g id="node1" class="node">
<title>selector:
 insert(left_hand, clampgripper, gear3, shaft3)</title>
<polygon fill="cyan" stroke="black" points="673.06,-472.7 673.06,-490.39 569.01,-502.9 421.85,-502.9 317.8,-490.39 317.8,-472.7 421.85,-460.18 569.01,-460.18 673.06,-472.7"/>
<text text-anchor="middle" x="495.43" y="-484.34" font-family="Times,serif" font-size="9.00">selector:</text>
<text text-anchor="middle" x="495.43" y="-474.34" font-family="Times,serif" font-size="9.00"> insert(left_hand, clampgripper, gear3, shaft3)</text>
</g>
<!-- target:
 is_inserted_to(gear3, shaft3) -->
<g id="node2" class="node">
<title>target:
 is_inserted_to(gear3, shaft3)</title>
<ellipse fill="gray" stroke="black" cx="375.43" cy="-404.31" rx="107.46" ry="19.6"/>
<text text-anchor="middle" x="375.43" y="-407.11" font-family="Times,serif" font-size="9.00">target:</text>
<text text-anchor="middle" x="375.43" y="-397.11" font-family="Times,serif" font-size="9.00"> is_inserted_to(gear3, shaft3)</text>
</g>
<!-- selector:
 insert(left_hand, clampgripper, gear3, shaft3)&#45;&gt;target:
 is_inserted_to(gear3, shaft3) -->
<g id="edge1" class="edge">
<title>selector:
 insert(left_hand, clampgripper, gear3, shaft3)&#45;&gt;target:
 is_inserted_to(gear3, shaft3)</title>
<path fill="none" stroke="black" d="M462.64,-459.99C447.3,-450.37 428.95,-438.86 413.05,-428.9"/>
<polygon fill="black" stroke="black" points="414.83,-425.88 404.5,-423.54 411.11,-431.81 414.83,-425.88"/>
</g>
<!-- sequence:
 insert(left_hand, clampgripper, gear3, shaft3) -->
<g id="node3" class="node">
<title>sequence:
 insert(left_hand, clampgripper, gear3, shaft3)</title>
<polygon fill="orange" stroke="black" points="732.43,-422.31 500.43,-422.31 500.43,-386.31 732.43,-386.31 732.43,-422.31"/>
<text text-anchor="middle" x="616.43" y="-407.11" font-family="Times,serif" font-size="9.00">sequence:</text>
<text text-anchor="middle" x="616.43" y="-397.11" font-family="Times,serif" font-size="9.00"> insert(left_hand, clampgripper, gear3, shaft3)</text>
</g>
<!-- selector:
 insert(left_hand, clampgripper, gear3, shaft3)&#45;&gt;sequence:
 insert(left_hand, clampgripper, gear3, shaft3) -->
<g id="edge2" class="edge">
<title>selector:
 insert(left_hand, clampgripper, gear3, shaft3)&#45;&gt;sequence:
 insert(left_hand, clampgripper, gear3, shaft3)</title>
<path fill="none" stroke="black" d="M528.49,-459.99C544.43,-450.08 563.6,-438.16 579.96,-427.99"/>
<polygon fill="black" stroke="black" points="582.08,-430.79 588.73,-422.54 578.39,-424.85 582.08,-430.79"/>
</g>
<!-- selector:
 pick_up(left_hand, clampgripper, gear3) -->
<g id="node4" class="node">
<title>selector:
 pick_up(left_hand, clampgripper, gear3)</title>
<polygon fill="cyan" stroke="black" points="604.26,-318.24 604.26,-335.93 511.81,-348.45 381.05,-348.45 288.6,-335.93 288.6,-318.24 381.05,-305.72 511.81,-305.72 604.26,-318.24"/>
<text text-anchor="middle" x="446.43" y="-329.88" font-family="Times,serif" font-size="9.00">selector:</text>
<text text-anchor="middle" x="446.43" y="-319.88" font-family="Times,serif" font-size="9.00"> pick_up(left_hand, clampgripper, gear3)</text>
</g>
<!-- sequence:
 insert(left_hand, clampgripper, gear3, shaft3)&#45;&gt;selector:
 pick_up(left_hand, clampgripper, gear3) -->
<g id="edge3" class="edge">
<title>sequence:
 insert(left_hand, clampgripper, gear3, shaft3)&#45;&gt;selector:
 pick_up(left_hand, clampgripper, gear3)</title>
<path fill="none" stroke="black" d="M577.85,-386.24C555.44,-376.33 526.82,-363.66 502.01,-352.68"/>
<polygon fill="black" stroke="black" points="503.27,-349.41 492.71,-348.57 500.44,-355.81 503.27,-349.41"/>
</g>
<!-- action:
 insert(left_hand, clampgripper, gear3, shaft3) -->
<g id="node15" class="node">
<title>action:
 insert(left_hand, clampgripper, gear3, shaft3)</title>
<ellipse fill="gray" stroke="black" cx="786.43" cy="-327.08" rx="164.1" ry="19.6"/>
<text text-anchor="middle" x="786.43" y="-329.88" font-family="Times,serif" font-size="9.00">action:</text>
<text text-anchor="middle" x="786.43" y="-319.88" font-family="Times,serif" font-size="9.00"> insert(left_hand, clampgripper, gear3, shaft3)</text>
</g>
<!-- sequence:
 insert(left_hand, clampgripper, gear3, shaft3)&#45;&gt;action:
 insert(left_hand, clampgripper, gear3, shaft3) -->
<g id="edge14" class="edge">
<title>sequence:
 insert(left_hand, clampgripper, gear3, shaft3)&#45;&gt;action:
 insert(left_hand, clampgripper, gear3, shaft3)</title>
<path fill="none" stroke="black" d="M655.01,-386.24C679,-375.63 710.11,-361.86 736.04,-350.38"/>
<polygon fill="black" stroke="black" points="737.61,-353.52 745.34,-346.27 734.78,-347.12 737.61,-353.52"/>
</g>
<!-- target:
 hold(clampgripper, gear3) -->
<g id="node5" class="node">
<title>target:
 hold(clampgripper, gear3)</title>
<ellipse fill="gray" stroke="black" cx="336.43" cy="-249.86" rx="100.32" ry="19.6"/>
<text text-anchor="middle" x="336.43" y="-252.66" font-family="Times,serif" font-size="9.00">target:</text>
<text text-anchor="middle" x="336.43" y="-242.66" font-family="Times,serif" font-size="9.00"> hold(clampgripper, gear3)</text>
</g>
<!-- selector:
 pick_up(left_hand, clampgripper, gear3)&#45;&gt;target:
 hold(clampgripper, gear3) -->
<g id="edge4" class="edge">
<title>selector:
 pick_up(left_hand, clampgripper, gear3)&#45;&gt;target:
 hold(clampgripper, gear3)</title>
<path fill="none" stroke="black" d="M416.37,-305.53C402.57,-296.09 386.11,-284.83 371.72,-274.99"/>
<polygon fill="black" stroke="black" points="373.31,-271.83 363.08,-269.08 369.35,-277.61 373.31,-271.83"/>
</g>
<!-- sequence:
 pick_up(left_hand, clampgripper, gear3) -->
<g id="node6" class="node">
<title>sequence:
 pick_up(left_hand, clampgripper, gear3)</title>
<polygon fill="orange" stroke="black" points="660.43,-267.86 454.43,-267.86 454.43,-231.86 660.43,-231.86 660.43,-267.86"/>
<text text-anchor="middle" x="557.43" y="-252.66" font-family="Times,serif" font-size="9.00">sequence:</text>
<text text-anchor="middle" x="557.43" y="-242.66" font-family="Times,serif" font-size="9.00"> pick_up(left_hand, clampgripper, gear3)</text>
</g>
<!-- selector:
 pick_up(left_hand, clampgripper, gear3)&#45;&gt;sequence:
 pick_up(left_hand, clampgripper, gear3) -->
<g id="edge5" class="edge">
<title>selector:
 pick_up(left_hand, clampgripper, gear3)&#45;&gt;sequence:
 pick_up(left_hand, clampgripper, gear3)</title>
<path fill="none" stroke="black" d="M476.76,-305.53C491.25,-295.71 508.64,-283.92 523.56,-273.81"/>
<polygon fill="black" stroke="black" points="525.7,-276.59 532.02,-268.08 521.77,-270.79 525.7,-276.59"/>
</g>
<!-- selector:
 change_tool(left_hand, defaultgripper, clampgripper) -->
<g id="node7" class="node">
<title>selector:
 change_tool(left_hand, defaultgripper, clampgripper)</title>
<polygon fill="cyan" stroke="black" points="447.11,-163.78 447.11,-181.47 327.8,-193.99 159.06,-193.99 39.75,-181.47 39.75,-163.78 159.06,-151.27 327.8,-151.27 447.11,-163.78"/>
<text text-anchor="middle" x="243.43" y="-175.43" font-family="Times,serif" font-size="9.00">selector:</text>
<text text-anchor="middle" x="243.43" y="-165.43" font-family="Times,serif" font-size="9.00"> change_tool(left_hand, defaultgripper, clampgripper)</text>
</g>
<!-- sequence:
 pick_up(left_hand, clampgripper, gear3)&#45;&gt;selector:
 change_tool(left_hand, defaultgripper, clampgripper) -->
<g id="edge6" class="edge">
<title>sequence:
 pick_up(left_hand, clampgripper, gear3)&#45;&gt;selector:
 change_tool(left_hand, defaultgripper, clampgripper)</title>
<path fill="none" stroke="black" d="M486.18,-231.78C442.43,-221.3 385.86,-207.75 338.34,-196.36"/>
<polygon fill="black" stroke="black" points="338.88,-192.9 328.34,-193.97 337.25,-199.7 338.88,-192.9"/>
</g>
<!-- precondition:
 is_empty(clampgripper) -->
<g id="node13" class="node">
<title>precondition:
 is_empty(clampgripper)</title>
<ellipse fill="gray" stroke="black" cx="557.43" cy="-172.63" rx="92.76" ry="19.6"/>
<text text-anchor="middle" x="557.43" y="-175.43" font-family="Times,serif" font-size="9.00">precondition:</text>
<text text-anchor="middle" x="557.43" y="-165.43" font-family="Times,serif" font-size="9.00"> is_empty(clampgripper)</text>
</g>
<!-- sequence:
 pick_up(left_hand, clampgripper, gear3)&#45;&gt;precondition:
 is_empty(clampgripper) -->
<g id="edge12" class="edge">
<title>sequence:
 pick_up(left_hand, clampgripper, gear3)&#45;&gt;precondition:
 is_empty(clampgripper)</title>
<path fill="none" stroke="black" d="M557.43,-231.78C557.43,-223.19 557.43,-212.53 557.43,-202.69"/>
<polygon fill="black" stroke="black" points="560.93,-202.48 557.43,-192.48 553.93,-202.48 560.93,-202.48"/>
</g>
<!-- action:
 pick_up(left_hand, clampgripper, gear3) -->
<g id="node14" class="node">
<title>action:
 pick_up(left_hand, clampgripper, gear3)</title>
<ellipse fill="gray" stroke="black" cx="813.43" cy="-172.63" rx="145.83" ry="19.6"/>
<text text-anchor="middle" x="813.43" y="-175.43" font-family="Times,serif" font-size="9.00">action:</text>
<text text-anchor="middle" x="813.43" y="-165.43" font-family="Times,serif" font-size="9.00"> pick_up(left_hand, clampgripper, gear3)</text>
</g>
<!-- sequence:
 pick_up(left_hand, clampgripper, gear3)&#45;&gt;action:
 pick_up(left_hand, clampgripper, gear3) -->
<g id="edge13" class="edge">
<title>sequence:
 pick_up(left_hand, clampgripper, gear3)&#45;&gt;action:
 pick_up(left_hand, clampgripper, gear3)</title>
<path fill="none" stroke="black" d="M615.52,-231.78C653.95,-220.49 704.51,-205.63 744.91,-193.76"/>
<polygon fill="black" stroke="black" points="746.08,-197.07 754.68,-190.89 744.1,-190.35 746.08,-197.07"/>
</g>
<!-- target:
 hold(left_hand, clampgripper) -->
<g id="node8" class="node">
<title>target:
 hold(left_hand, clampgripper)</title>
<ellipse fill="gray" stroke="black" cx="112.43" cy="-95.4" rx="112.36" ry="19.6"/>
<text text-anchor="middle" x="112.43" y="-98.2" font-family="Times,serif" font-size="9.00">target:</text>
<text text-anchor="middle" x="112.43" y="-88.2" font-family="Times,serif" font-size="9.00"> hold(left_hand, clampgripper)</text>
</g>
<!-- selector:
 change_tool(left_hand, defaultgripper, clampgripper)&#45;&gt;target:
 hold(left_hand, clampgripper) -->
<g id="edge7" class="edge">
<title>selector:
 change_tool(left_hand, defaultgripper, clampgripper)&#45;&gt;target:
 hold(left_hand, clampgripper)</title>
<path fill="none" stroke="black" d="M207.63,-151.07C190.73,-141.36 170.48,-129.73 153.01,-119.7"/>
<polygon fill="black" stroke="black" points="154.58,-116.56 144.16,-114.62 151.09,-122.64 154.58,-116.56"/>
</g>
<!-- sequence:
 change_tool(left_hand, defaultgripper, clampgripper) -->
<g id="node9" class="node">
<title>sequence:
 change_tool(left_hand, defaultgripper, clampgripper)</title>
<polygon fill="orange" stroke="black" points="508.43,-113.4 242.43,-113.4 242.43,-77.4 508.43,-77.4 508.43,-113.4"/>
<text text-anchor="middle" x="375.43" y="-98.2" font-family="Times,serif" font-size="9.00">sequence:</text>
<text text-anchor="middle" x="375.43" y="-88.2" font-family="Times,serif" font-size="9.00"> change_tool(left_hand, defaultgripper, clampgripper)</text>
</g>
<!-- selector:
 change_tool(left_hand, defaultgripper, clampgripper)&#45;&gt;sequence:
 change_tool(left_hand, defaultgripper, clampgripper) -->
<g id="edge8" class="edge">
<title>selector:
 change_tool(left_hand, defaultgripper, clampgripper)&#45;&gt;sequence:
 change_tool(left_hand, defaultgripper, clampgripper)</title>
<path fill="none" stroke="black" d="M279.5,-151.07C297.05,-141.07 318.18,-129.02 336.14,-118.79"/>
<polygon fill="black" stroke="black" points="338.25,-121.61 345.21,-113.62 334.79,-115.53 338.25,-121.61"/>
</g>
<!-- precondition:
 hold(left_hand, defaultgripper) -->
<g id="node10" class="node">
<title>precondition:
 hold(left_hand, defaultgripper)</title>
<ellipse fill="gray" stroke="black" cx="146.43" cy="-19.8" rx="115.93" ry="19.6"/>
<text text-anchor="middle" x="146.43" y="-22.6" font-family="Times,serif" font-size="9.00">precondition:</text>
<text text-anchor="middle" x="146.43" y="-12.6" font-family="Times,serif" font-size="9.00"> hold(left_hand, defaultgripper)</text>
</g>
<!-- sequence:
 change_tool(left_hand, defaultgripper, clampgripper)&#45;&gt;precondition:
 hold(left_hand, defaultgripper) -->
<g id="edge9" class="edge">
<title>sequence:
 change_tool(left_hand, defaultgripper, clampgripper)&#45;&gt;precondition:
 hold(left_hand, defaultgripper)</title>
<path fill="none" stroke="black" d="M322.32,-77.33C288.26,-66.38 243.91,-52.13 208.27,-40.67"/>
<polygon fill="black" stroke="black" points="209.06,-37.25 198.47,-37.52 206.91,-43.91 209.06,-37.25"/>
</g>
<!-- precondition:
 is_empty(defaultgripper) -->
<g id="node11" class="node">
<title>precondition:
 is_empty(defaultgripper)</title>
<ellipse fill="gray" stroke="black" cx="375.43" cy="-19.8" rx="95.42" ry="19.6"/>
<text text-anchor="middle" x="375.43" y="-22.6" font-family="Times,serif" font-size="9.00">precondition:</text>
<text text-anchor="middle" x="375.43" y="-12.6" font-family="Times,serif" font-size="9.00"> is_empty(defaultgripper)</text>
</g>
<!-- sequence:
 change_tool(left_hand, defaultgripper, clampgripper)&#45;&gt;precondition:
 is_empty(defaultgripper) -->
<g id="edge10" class="edge">
<title>sequence:
 change_tool(left_hand, defaultgripper, clampgripper)&#45;&gt;precondition:
 is_empty(defaultgripper)</title>
<path fill="none" stroke="black" d="M375.43,-77.33C375.43,-69.18 375.43,-59.21 375.43,-49.91"/>
<polygon fill="black" stroke="black" points="378.93,-49.85 375.43,-39.85 371.93,-49.85 378.93,-49.85"/>
</g>
<!-- action:
 change_tool(left_hand, defaultgripper, clampgripper) -->
<g id="node12" class="node">
<title>action:
 change_tool(left_hand, defaultgripper, clampgripper)</title>
<ellipse fill="gray" stroke="black" cx="677.43" cy="-19.8" rx="188.18" ry="19.6"/>
<text text-anchor="middle" x="677.43" y="-22.6" font-family="Times,serif" font-size="9.00">action:</text>
<text text-anchor="middle" x="677.43" y="-12.6" font-family="Times,serif" font-size="9.00"> change_tool(left_hand, defaultgripper, clampgripper)</text>
</g>
<!-- sequence:
 change_tool(left_hand, defaultgripper, clampgripper)&#45;&gt;action:
 change_tool(left_hand, defaultgripper, clampgripper) -->
<g id="edge11" class="edge">
<title>sequence:
 change_tool(left_hand, defaultgripper, clampgripper)&#45;&gt;action:
 change_tool(left_hand, defaultgripper, clampgripper)</title>
<path fill="none" stroke="black" d="M445.47,-77.33C490.53,-66.35 549.25,-52.04 596.33,-40.56"/>
<polygon fill="black" stroke="black" points="597.31,-43.93 606.19,-38.16 595.65,-37.13 597.31,-43.93"/>
</g>
</g>
</svg>
