<?xml version="1.0" encoding="UTF-8" standalone="no"?>
<!DOCTYPE svg PUBLIC "-//W3C//DTD SVG 1.1//EN"
 "http://www.w3.org/Graphics/SVG/1.1/DTD/svg11.dtd">
<!-- Generated by graphviz version 2.43.0 (0)
 -->
<!-- Title: pastafarianism Pages: 1 -->
<svg width="512pt" height="202pt"
 viewBox="0.00 0.00 511.58 202.06" xmlns="http://www.w3.org/2000/svg" xmlns:xlink="http://www.w3.org/1999/xlink">
<g id="graph0" class="graph" transform="scale(1 1) rotate(0) translate(4 198.06)">
<title>pastafarianism</title>
<polygon fill="white" stroke="transparent" points="-4,4 -4,-198.06 507.58,-198.06 507.58,4 -4,4"/>
<!-- selector:
 move_to(robot_arm, point_A) -->
<g id="node1" class="node">
<title>selector:
 move_to(robot_arm, point_A)</title>
<polygon fill="cyan" stroke="black" points="296.59,-163.78 296.59,-181.47 227.94,-193.99 130.84,-193.99 62.19,-181.47 62.19,-163.78 130.84,-151.27 227.94,-151.27 296.59,-163.78"/>
<text text-anchor="middle" x="179.39" y="-175.43" font-family="Times,serif" font-size="9.00">selector:</text>
<text text-anchor="middle" x="179.39" y="-165.43" font-family="Times,serif" font-size="9.00"> move_to(robot_arm, point_A)</text>
</g>
<!-- target:
 at(robot_arm, point_A) -->
<g id="node2" class="node">
<title>target:
 at(robot_arm, point_A)</title>
<ellipse fill="gray" stroke="black" cx="88.39" cy="-95.4" rx="88.28" ry="19.6"/>
<text text-anchor="middle" x="88.39" y="-98.2" font-family="Times,serif" font-size="9.00">target:</text>
<text text-anchor="middle" x="88.39" y="-88.2" font-family="Times,serif" font-size="9.00"> at(robot_arm, point_A)</text>
</g>
<!-- selector:
 move_to(robot_arm, point_A)&#45;&gt;target:
 at(robot_arm, point_A) -->
<g id="edge1" class="edge">
<title>selector:
 move_to(robot_arm, point_A)&#45;&gt;target:
 at(robot_arm, point_A)</title>
<path fill="none" stroke="black" d="M154.52,-151.07C143.32,-141.81 130,-130.8 118.26,-121.09"/>
<polygon fill="black" stroke="black" points="120.37,-118.29 110.43,-114.62 115.91,-123.69 120.37,-118.29"/>
</g>
<!-- sequence:
 move_to(robot_arm, point_A) -->
<g id="node3" class="node">
<title>sequence:
 move_to(robot_arm, point_A)</title>
<polygon fill="orange" stroke="black" points="347.89,-113.4 194.89,-113.4 194.89,-77.4 347.89,-77.4 347.89,-113.4"/>
<text text-anchor="middle" x="271.39" y="-98.2" font-family="Times,serif" font-size="9.00">sequence:</text>
<text text-anchor="middle" x="271.39" y="-88.2" font-family="Times,serif" font-size="9.00"> move_to(robot_arm, point_A)</text>
</g>
<!-- selector:
 move_to(robot_arm, point_A)&#45;&gt;sequence:
 move_to(robot_arm, point_A) -->
<g id="edge2" class="edge">
<title>selector:
 move_to(robot_arm, point_A)&#45;&gt;sequence:
 move_to(robot_arm, point_A)</title>
<path fill="none" stroke="black" d="M204.53,-151.07C216.2,-141.53 230.14,-130.12 242.27,-120.21"/>
<polygon fill="black" stroke="black" points="244.8,-122.66 250.32,-113.62 240.37,-117.24 244.8,-122.66"/>
</g>
<!-- precondition:
 can_move_to(robot_arm, point_A) -->
<g id="node4" class="node">
<title>precondition:
 can_move_to(robot_arm, point_A)</title>
<ellipse fill="gray" stroke="black" cx="146.39" cy="-19.8" rx="123.07" ry="19.6"/>
<text text-anchor="middle" x="146.39" y="-22.6" font-family="Times,serif" font-size="9.00">precondition:</text>
<text text-anchor="middle" x="146.39" y="-12.6" font-family="Times,serif" font-size="9.00"> can_move_to(robot_arm, point_A)</text>
</g>
<!-- sequence:
 move_to(robot_arm, point_A)&#45;&gt;precondition:
 can_move_to(robot_arm, point_A) -->
<g id="edge3" class="edge">
<title>sequence:
 move_to(robot_arm, point_A)&#45;&gt;precondition:
 can_move_to(robot_arm, point_A)</title>
<path fill="none" stroke="black" d="M242.4,-77.33C225.66,-67.47 204.38,-54.94 186.1,-44.18"/>
<polygon fill="black" stroke="black" points="187.8,-41.12 177.41,-39.06 184.25,-47.15 187.8,-41.12"/>
</g>
<!-- action:
 move_to(robot_arm, point_A) -->
<g id="node5" class="node">
<title>action:
 move_to(robot_arm, point_A)</title>
<ellipse fill="gray" stroke="black" cx="395.39" cy="-19.8" rx="108.38" ry="19.6"/>
<text text-anchor="middle" x="395.39" y="-22.6" font-family="Times,serif" font-size="9.00">action:</text>
<text text-anchor="middle" x="395.39" y="-12.6" font-family="Times,serif" font-size="9.00"> move_to(robot_arm, point_A)</text>
</g>
<!-- sequence:
 move_to(robot_arm, point_A)&#45;&gt;action:
 move_to(robot_arm, point_A) -->
<g id="edge4" class="edge">
<title>sequence:
 move_to(robot_arm, point_A)&#45;&gt;action:
 move_to(robot_arm, point_A)</title>
<path fill="none" stroke="black" d="M300.15,-77.33C316.75,-67.47 337.86,-54.94 355.99,-44.18"/>
<polygon fill="black" stroke="black" points="357.8,-47.18 364.62,-39.06 354.23,-41.16 357.8,-47.18"/>
</g>
</g>
</svg>
